HIERARCHY
ROOT root
{
	OFFSET 0.000000 0.000000 0.000000
	CHANNELS 6 Xposition Yposition Zposition Zrotation Yrotation Xrotation
	JOINT lhip
	{
		OFFSET 0.058581 -0.082280 -0.017664
		CHANNELS 3 Zrotation Yrotation Xrotation
		JOINT lknee
		{
			OFFSET 0.043451 -0.386469 0.008037
			CHANNELS 3 Zrotation Yrotation Xrotation
			JOINT lankle
			{
				OFFSET -0.014790 -0.426874 -0.037428
				CHANNELS 3 Zrotation Yrotation Xrotation
				JOINT ltoe
				{
					OFFSET 0.041054 -0.060286 0.122042
					CHANNELS 3 Zrotation Yrotation Xrotation
					End Site
					{
						OFFSET 0.000000 0.000000 0.000000
					}
				}
			}
		}
	}
	JOINT rhip
	{
		OFFSET -0.060310 -0.090513 -0.013543
		CHANNELS 3 Zrotation Yrotation Xrotation
		JOINT rknee
		{
			OFFSET -0.043257 -0.383688 -0.004843
			CHANNELS 3 Zrotation Yrotation Xrotation
			JOINT rankle
			{
				OFFSET 0.019056 -0.420046 -0.034562
				CHANNELS 3 Zrotation Yrotation Xrotation
				JOINT rtoe
				{
					OFFSET -0.034840 -0.062106 0.130323
					CHANNELS 3 Zrotation Yrotation Xrotation
					End Site
					{
						OFFSET 0.000000 0.000000 0.000000
					}
				}
			}
		}
	}
	JOINT lowerback
	{
		OFFSET 0.004439 0.124404 -0.038385
		CHANNELS 3 Zrotation Yrotation Xrotation
		JOINT upperback
		{
			OFFSET 0.004488 0.137956 0.026820
			CHANNELS 3 Zrotation Yrotation Xrotation
			JOINT chest
			{
				OFFSET -0.002265 0.056032 0.002855
				CHANNELS 3 Zrotation Yrotation Xrotation
				JOINT lowerneck
				{
					OFFSET -0.013390 0.211636 -0.033468
					CHANNELS 3 Zrotation Yrotation Xrotation
					JOINT upperneck
					{
						OFFSET 0.010113 0.088937 0.050410
						CHANNELS 3 Zrotation Yrotation Xrotation
						End Site
						{
							OFFSET 0.000000 0.000000 0.000000
						}
					}
				}
				JOINT lclavicle
				{
					OFFSET 0.071702 0.114000 -0.018898
					CHANNELS 3 Zrotation Yrotation Xrotation
					JOINT lshoulder
					{
						OFFSET 0.122921 0.045205 -0.019046
						CHANNELS 3 Zrotation Yrotation Xrotation
						JOINT lelbow
						{
							OFFSET 0.255332 -0.015649 -0.022946
							CHANNELS 3 Zrotation Yrotation Xrotation
							JOINT lwrist
							{
								OFFSET 0.265709 0.012698 -0.007375
								CHANNELS 3 Zrotation Yrotation Xrotation
								End Site
								{
									OFFSET 0.000000 0.000000 0.000000
								}
							}
						}
					}
				}
				JOINT rclavicle
				{
					OFFSET -0.082954 0.112472 -0.023707
					CHANNELS 3 Zrotation Yrotation Xrotation
					JOINT rshoulder
					{
						OFFSET -0.113228 0.046853 -0.008472
						CHANNELS 3 Zrotation Yrotation Xrotation
						JOINT relbow
						{
							OFFSET -0.260127 -0.014369 -0.031269
							CHANNELS 3 Zrotation Yrotation Xrotation
							JOINT rwrist
							{
								OFFSET -0.269108 0.006794 -0.006027
								CHANNELS 3 Zrotation Yrotation Xrotation
								End Site
								{
									OFFSET 0.000000 0.000000 0.000000
								}
							}
						}
					}
				}
			}
		}
	}
}
MOTION
Frames: 11
Frame Time: 0.033333
-0.266084 0.233856 0.959168 125.154072 -21.641793 121.458856 5.417143 2.872359 -21.448689 -7.810148 -13.896982 23.157802 -14.657165 -0.922396 10.263760 0.000000 -0.000000 0.000000 -18.688757 -16.525281 -59.555449 1.063445 -16.289984 31.042518 6.416285 -2.356416 -7.342673 0.000000 -0.000000 0.000000 18.405235 -11.346152 52.272075 -3.400636 10.672804 2.830713 5.010833 1.755251 3.944939 -3.107289 -28.941637 0.749173 7.358318 -0.868566 -19.370466 -15.334233 -12.966582 -1.989928 -61.828144 -5.109902 20.730276 13.430122 -70.120903 17.181063 -1.969492 -4.248267 -17.198582 -14.405110 28.398808 -6.887141 -10.462094 10.055836 -30.939372 3.267390 8.201512 -22.092130 5.220890 3.969220 4.637524 
-0.262456 0.232004 0.951463 124.216040 -23.653449 124.812711 5.224921 2.187816 -22.154520 -8.155995 -14.081658 22.539419 -14.583235 0.435602 12.178281 0.000000 -0.000000 0.000000 -21.081398 -16.609501 -63.529301 0.950705 -15.827479 33.197543 5.723980 -3.451423 -8.202303 0.000000 -0.000000 0.000000 18.266942 -11.065207 51.352097 -3.835006 10.790819 2.739095 5.057528 1.587953 4.630947 -2.067730 -28.802595 0.054825 7.728138 -1.165786 -21.490116 -13.840082 -12.869166 -1.832450 -62.764392 -5.623177 20.912406 11.511339 -69.469180 19.656732 -1.093349 -4.067696 -17.678229 -16.183611 28.130560 -6.881475 -13.665795 9.090086 -33.158505 3.041702 6.604120 -21.279691 2.942251 4.439796 6.596006 
-0.256438 0.230460 0.943848 123.713282 -25.027727 126.846500 5.393203 2.143290 -21.943651 -8.183198 -14.317197 22.822009 -14.302011 1.458064 11.504863 0.000000 -0.000000 0.000000 -22.299685 -16.214034 -66.486096 0.356797 -15.217452 35.762882 4.049129 -5.650343 -10.345925 0.000000 -0.000000 0.000000 18.068381 -11.338518 51.570547 -4.082610 11.090880 2.627819 5.272435 1.422340 4.964538 -1.314579 -29.332242 -0.679585 7.915295 -0.822472 -23.535587 -13.105189 -13.014937 -1.661248 -63.004080 -5.745627 20.729576 9.192660 -69.179884 22.228225 0.030154 -3.762030 -17.994335 -17.618497 28.154845 -6.951135 -16.204716 8.171554 -34.453034 2.969112 5.967362 -20.960969 -1.893514 5.153112 8.172871 
-0.251493 0.229731 0.936812 123.867361 -26.629177 128.264580 5.406052 1.705649 -21.964059 -8.217431 -14.072508 23.671644 -13.935452 2.753371 10.842498 0.000000 -0.000000 0.000000 -23.845205 -16.387215 -68.816159 -0.274351 -14.361206 38.721022 3.349216 -7.230272 -11.926879 0.000000 -0.000000 0.000000 18.376348 -11.897086 51.254093 -3.865165 11.062035 2.898734 5.319846 1.073057 5.379930 -0.163786 -29.566172 -1.970296 7.706034 -0.917988 -25.222058 -12.351992 -13.051592 -1.574868 -63.540007 -6.267027 20.649112 7.394804 -68.927605 24.130227 0.728524 -3.725202 -18.151072 -18.521380 27.662794 -6.600488 -18.583980 7.652666 -35.740297 2.676722 5.759679 -21.169402 -5.099791 5.458932 9.580750 
-0.246411 0.229602 0.930536 124.011747 -27.464949 129.454756 5.789643 1.709314 -21.948527 -8.234712 -13.530995 24.672822 -13.597679 3.781030 10.597095 0.000000 -0.000000 0.000000 -25.104390 -16.609397 -70.578236 -0.202597 -14.326674 41.173479 2.983430 -8.215667 -13.054795 0.000000 -0.000000 0.000000 18.635462 -12.448280 51.173776 -3.746066 11.359285 3.122210 5.404275 1.081464 5.371288 0.598359 -30.346091 -2.765993 7.619370 -0.415018 -26.091735 -11.949027 -13.528254 -1.481631 -63.987251 -6.390910 20.275561 6.830370 -69.153742 24.557849 0.262507 -3.848923 -18.634737 -19.506827 27.885754 -6.966400 -19.832414 6.584810 -36.539376 2.820210 5.706119 -20.266331 -2.931595 4.672852 12.140964 
-0.242337 0.229396 0.925516 123.543872 -27.550244 130.829808 6.310861 2.097039 -21.865998 -8.406330 -12.523074 25.377682 -13.489425 4.405339 11.180794 0.000000 -0.000000 0.000000 -25.278534 -16.707373 -72.139931 0.253644 -14.535041 42.123611 2.327629 -8.881993 -13.917476 0.000000 -0.000000 0.000000 18.677399 -12.471417 51.022021 -3.785639 11.880737 3.588211 5.518031 1.133996 5.433348 1.133096 -30.426665 -3.438186 8.046994 -0.034066 -27.062404 -11.447861 -13.862142 -2.017350 -64.590223 -6.331485 20.527771 7.556772 -69.974184 23.817148 -0.027840 -3.420548 -18.474489 -20.410082 27.897874 -6.628214 -20.481757 6.006111 -36.804887 2.979912 5.238462 -19.415461 -1.026946 2.461016 15.143958 
-0.239236 0.230086 0.922791 123.328459 -27.406092 132.073618 6.422706 1.758209 -22.305722 -8.363341 -12.256421 26.543661 -13.400625 4.654073 11.522374 0.000000 -0.000000 0.000000 -25.312752 -16.612489 -73.403891 0.159136 -14.915240 42.756951 1.963476 -9.066647 -14.220492 0.000000 -0.000000 0.000000 18.887526 -12.648251 50.925729 -3.900719 12.310954 3.368994 5.561084 1.304978 5.601443 1.593785 -30.648421 -3.526855 8.391697 0.245471 -28.115884 -10.969100 -13.809444 -2.092240 -65.234530 -6.783226 20.572227 8.639089 -71.009601 22.320209 -0.274887 -3.615633 -19.364323 -21.146181 27.878693 -6.139555 -19.969305 5.869683 -36.485215 3.138400 4.635227 -19.129339 -1.455234 2.516152 16.203206 
-0.236569 0.231045 0.922253 123.136777 -27.294226 132.793167 6.142279 1.008923 -22.555440 -8.661735 -12.664240 27.646376 -13.170578 4.692552 11.629573 0.000000 -0.000000 0.000000 -25.503860 -16.158805 -74.025829 0.017957 -14.889530 43.029547 1.818594 -9.379711 -14.324110 0.000000 -0.000000 0.000000 18.787088 -13.302760 51.623389 -4.395868 12.387872 2.474681 5.415196 1.397067 5.954987 1.454797 -30.909405 -3.476403 8.973646 1.162775 -29.230143 -10.838332 -12.998957 -2.735330 -64.952859 -6.886076 21.332863 9.518691 -72.889419 20.947510 1.471530 -3.323794 -19.820404 -22.740263 27.116789 -6.552393 -16.907628 7.760327 -33.332510 2.257832 4.481124 -21.322949 -6.841036 5.048039 15.482599 
-0.234720 0.232357 0.922402 123.267682 -26.935075 132.986624 5.818399 0.418568 -22.843449 -8.692887 -12.933430 28.828586 -14.332717 3.887569 11.814494 0.000000 -0.000000 0.000000 -25.203862 -15.868397 -73.916265 -0.493759 -15.352406 42.826311 1.535748 -8.852273 -14.332732 0.000000 -0.000000 0.000000 19.054518 -12.393136 51.492886 -3.641899 12.494579 3.097054 6.059761 1.698412 5.399929 2.097487 -30.067467 -3.891034 8.760106 -0.059335 -29.961947 -11.197155 -14.396249 -1.487606 -65.221230 -7.836477 20.859850 12.439760 -75.221000 19.389982 3.159608 -3.360177 -20.596234 -19.717904 28.865848 -5.244312 -19.096005 5.457557 -35.952439 2.773010 3.932031 -18.395504 -12.652438 9.665519 14.664589 
-0.233478 0.233036 0.924244 123.129730 -26.357227 132.820646 5.495908 -0.036424 -22.513462 -8.843814 -12.886597 28.975959 -14.897194 2.871149 12.007724 0.000000 -0.000000 0.000000 -25.048936 -15.103675 -73.380866 -0.688069 -15.640817 42.233323 1.684957 -8.368570 -14.502651 0.000000 -0.000000 0.000000 18.570678 -11.845050 51.875794 -3.291573 12.448095 3.369041 6.495176 1.851122 5.245256 2.427107 -29.425777 -4.554700 8.748008 -0.195959 -30.082794 -11.144544 -14.246568 -1.761821 -65.493523 -8.225706 21.165822 19.539232 -77.982139 11.847458 3.175306 -3.584197 -21.493393 -18.624023 29.027740 -4.994131 -17.771472 6.064970 -35.466229 2.155594 4.310085 -19.069379 -11.655808 10.427422 14.864049 
-0.233223 0.234177 0.927097 123.495912 -25.755494 132.268591 5.207053 -0.367727 -22.406730 -8.911405 -12.827940 29.013652 -15.619836 1.958885 12.231056 0.000000 -0.000000 0.000000 -24.681756 -14.523901 -72.326910 -0.904929 -16.025969 41.232729 1.724946 -8.014681 -14.229307 0.000000 -0.000000 0.000000 18.359459 -11.534509 51.841119 -2.930854 12.193876 3.395080 6.749744 2.008240 5.121981 2.530961 -28.969127 -5.029187 8.921100 -0.315189 -29.502748 -11.046301 -14.171437 -1.934134 -65.864453 -8.276042 21.230709 31.431246 -80.701331 0.004058 2.956320 -3.405516 -22.260308 -17.651817 29.163144 -4.826705 -14.888315 6.871585 -34.150499 1.602853 5.496303 -18.359735 -6.860023 9.174835 14.955797 
